<svg xmlns="http://www.w3.org/2000/svg" width="256" height="256" viewBox="0 0 256 256" fill="none" style="     ">
<path fill-rule="evenodd" clip-rule="evenodd" d="M1.49995 18.1965C0.833296 18.5814 0.833297 19.5436 1.49995 19.9285L11.5 25.7022C11.8094 25.8808 12.1906 25.8808 12.5 25.7022L22.5 19.9285C23.1667 19.5436 23.1667 18.5814 22.5 18.1964L12.5 12.4228C12.1906 12.2441 11.8094 12.2441 11.5 12.4228L1.49995 18.1965Z" fill="#FF822A" style="&#10;    transform: scale(4);&#10;"/>
<path fill-rule="evenodd" clip-rule="evenodd" d="M0.899973 6.41792C0.408628 6.7016 0.25146 7.33679 0.553823 7.81687L11.4872 25.1764C11.7735 25.631 12.368 25.7781 12.8333 25.5094L23.1 19.5818C23.5914 19.2981 23.7485 18.6629 23.4462 18.1829L12.5128 0.823382C12.2265 0.368716 11.632 0.221622 11.1667 0.490292L0.899973 6.41792Z" fill="url(#paint0_linear_16412_16532)" style="&#10;    transform: scale(4);&#10;"/>
<path fill-rule="evenodd" clip-rule="evenodd" d="M1.49995 6.07151C0.833296 6.45641 0.833297 7.41865 1.49995 7.80355L11.5 13.5772C11.8094 13.7559 12.1906 13.7559 12.5 13.5772L22.5 7.80355C23.1667 7.41865 23.1667 6.45641 22.5 6.07151L12.5 0.297834C12.1906 0.119193 11.8094 0.119194 11.5 0.297834L1.49995 6.07151Z" fill="#71BFD8" style="&#10;    transform: scale(4);&#10;"/>
<defs>
<linearGradient id="paint0_linear_16412_16532" x1="8.47016" y1="2.0302" x2="20.969" y2="20.4794" gradientUnits="userSpaceOnUse">
<stop stop-color="#71BFD8"/>
<stop offset="1" stop-color="#FF822A"/>
</linearGradient>
<linearGradient id="paint1_linear_16412_16532" x1="137.364" y1="5.00914" x2="125.456" y2="-20.4446" gradientUnits="userSpaceOnUse">
<stop stop-color="#71BFD8"/>
<stop offset="1" stop-color="#FF822A"/>
</linearGradient>
<linearGradient id="paint2_linear_16412_16532" x1="137.364" y1="5.00914" x2="125.456" y2="-20.4446" gradientUnits="userSpaceOnUse">
<stop stop-color="#71BFD8"/>
<stop offset="1" stop-color="#FF822A"/>
</linearGradient>
<linearGradient id="paint3_linear_16412_16532" x1="137.364" y1="5.00914" x2="125.456" y2="-20.4446" gradientUnits="userSpaceOnUse">
<stop stop-color="#71BFD8"/>
<stop offset="1" stop-color="#FF822A"/>
</linearGradient>
<linearGradient id="paint4_linear_16412_16532" x1="137.364" y1="5.00914" x2="125.456" y2="-20.4446" gradientUnits="userSpaceOnUse">
<stop stop-color="#71BFD8"/>
<stop offset="1" stop-color="#FF822A"/>
</linearGradient>
<linearGradient id="paint5_linear_16412_16532" x1="137.364" y1="5.00914" x2="125.456" y2="-20.4446" gradientUnits="userSpaceOnUse">
<stop stop-color="#71BFD8"/>
<stop offset="1" stop-color="#FF822A"/>
</linearGradient>
<linearGradient id="paint6_linear_16412_16532" x1="137.364" y1="5.00914" x2="125.456" y2="-20.4446" gradientUnits="userSpaceOnUse">
<stop stop-color="#71BFD8"/>
<stop offset="1" stop-color="#FF822A"/>
</linearGradient>
<linearGradient id="paint7_linear_16412_16532" x1="137.364" y1="5.00914" x2="125.456" y2="-20.4446" gradientUnits="userSpaceOnUse">
<stop stop-color="#71BFD8"/>
<stop offset="1" stop-color="#FF822A"/>
</linearGradient>
<linearGradient id="paint8_linear_16412_16532" x1="137.364" y1="5.00914" x2="125.456" y2="-20.4446" gradientUnits="userSpaceOnUse">
<stop stop-color="#71BFD8"/>
<stop offset="1" stop-color="#FF822A"/>
</linearGradient>
</defs>
</svg>